<svg width="64" height="64" fill="none" xmlns="http://www.w3.org/2000/svg"><g id="img"><g id="Group" fill="#000"><path id="Vector" d="M17 47a4 4 0 100-8 4 4 0 000 8zm0-6a2 2 0 110 4 2 2 0 010-4z"/><path id="Vector_2" d="M48 9H8a3 3 0 00-3 3v40a3 3 0 003 3h40a3 3 0 003-3V12a3 3 0 00-3-3zm1 3v8h-5.1a5.015 5.015 0 00-3.9-3.9V11h8a1 1 0 011 1zm-5.1 30a5.015 5.015 0 00-3.9-3.9V33h9v9h-5.1zm-33.82 0H7v-9h9v3.08A7 7 0 0010.08 42zm2.02-20a5.015 5.015 0 003.9 3.9V31H7v-9h5.1zM38 38.1a5.015 5.015 0 00-3.9 3.9H29v-9h9v5.1zM23.92 42A7 7 0 0018 36.08V33h9v9h-3.08zM18 25.9a5.015 5.015 0 003.9-3.9H27v9h-9v-5.1zM29 31v-9h5.1a5.015 5.015 0 003.9 3.9V31h-9zm10-7a3 3 0 110-5.999A3 3 0 0139 24zm-1-7.9a5.015 5.015 0 00-3.9 3.9H29v-9h9v5.1zM27 20h-5.1a5.015 5.015 0 00-3.9-3.9V11h9v9zm-10-2a3 3 0 110 5.999A3 3 0 0117 18zm0 20a5 5 0 110 10 5 5 0 010-10zm1 11.92A7 7 0 0023.92 44H27v9h-9v-3.08zM29 44h5.1a5.015 5.015 0 003.9 3.9V53h-9v-9zm10 2a3 3 0 110-5.999A3 3 0 0139 46zm1-15v-5.1a5.015 5.015 0 003.9-3.9H49v9h-9zM8 11h8v5.1a5.015 5.015 0 00-3.9 3.9H7v-8a1 1 0 011-1zM7 52v-8h3.08A7 7 0 0016 49.92V53H8a1 1 0 01-1-1zm41 1h-8v-5.1a5.015 5.015 0 003.9-3.9H49v8a1 1 0 01-1 1z"/><path id="Vector_3" d="M60 5H4a3 3 0 00-3 3v48a3 3 0 003 3h56a3 3 0 003-3V8a3 3 0 00-3-3zm1 51a1 1 0 01-1 1H4a1 1 0 01-1-1V8a1 1 0 011-1h56a1 1 0 011 1v48z"/><path id="Vector_4" d="M56 17a3 3 0 100 5.999A3 3 0 0056 17zm0 4a1 1 0 110-2 1 1 0 010 2z"/><path id="Vector_5" d="M56 25a3 3 0 100 5.999A3 3 0 0056 25zm0 4a1 1 0 110-2 1 1 0 010 2z"/><path id="Vector_6" d="M56 33a3 3 0 100 5.999A3 3 0 0056 33zm0 4a1 1 0 110-2 1 1 0 010 2z"/><path id="Vector_7" d="M56 41a3 3 0 100 5.999A3 3 0 0056 41zm0 4a1 1 0 110-2 1 1 0 010 2z"/><path id="Vector_8" d="M59 10h-6v2h6v-2z"/></g></g></svg>