<svg width="20" height="20" fill="none" xmlns="http://www.w3.org/2000/svg"><g id="icon" clip-path="url(#clip0_1_36)"><g id="Group"><g id="Group_2"><g id="Group_3"><path id="Vector" d="M15.2 8.33V3.002L10 0 4.8 3.002V8.33L.187 10.993v6.005L5.387 20 10 17.336 14.614 20l5.2-3.002v-6.005L15.2 8.33zM4.8 18.307l-3.44-1.986v-3.973l3.44 1.986v3.973zm-2.854-6.975l3.44-1.987 3.441 1.987-3.44 1.986-3.441-1.986zm7.468 4.988l-3.441 1.987v-3.973l3.44-1.986v3.972zm0-6.004L5.973 8.33V4.357l3.44 1.986v3.973zM6.56 3.341L10 1.354l3.44 1.987L10 5.327 6.56 3.341zm7.467 1.016V8.33l-3.44 1.986V6.343l3.44-1.986zm0 13.95l-3.44-1.986v-3.973l3.44 1.986v3.973zm-2.854-6.975l3.44-1.987 3.441 1.987-3.44 1.986-3.44-1.986zm7.468 4.988l-3.44 1.987v-3.973l3.44-1.986v3.972z" fill="#B17955"/></g></g></g></g><defs><clipPath id="clip0_1_36"><path fill="#fff" d="M0 0h20v20H0z"/></clipPath></defs></svg>