<svg width="20" height="20" fill="none" xmlns="http://www.w3.org/2000/svg"><g id="icon" clip-path="url(#clip0_1_46)"><g id="Group"><g id="Group_2"><g id="Group_3"><g id="Group_4" fill="#B17955"><path id="Vector" d="M8.84 0H2.59a.625.625 0 00-.624.625v18.75c0 .345.28.625.625.625h6.25c.345 0 .624-.28.624-.625V.625A.625.625 0 008.84 0zm-.624 18.75h-5v-1.875H6.34v-1.25H3.216V13.75H5.09V12.5H3.216v-1.875H6.34v-1.25H3.216V7.5H5.09V6.25H3.216V4.375H6.34v-1.25H3.216V1.25h5v17.5z"/><path id="Vector_2" d="M17.152 15.812l-2.062 2.056V2.132l2.056 2.056.881-.881L14.902.182a.625.625 0 00-.88 0l-3.126 3.125.882.88 2.062-2.055v15.736l-2.056-2.056-.881.881 3.125 3.125a.625.625 0 00.88 0l3.126-3.125-.882-.88z"/></g></g></g></g></g><defs><clipPath id="clip0_1_46"><path fill="#fff" d="M0 0h20v20H0z"/></clipPath></defs></svg>