<svg width="232" height="38" fill="none" xmlns="http://www.w3.org/2000/svg"><path d="M134.442 8c1.82 0 3.4.3 4.74.9 1.36.6 2.4 1.46 3.12 2.58.72 1.12 1.08 2.45 1.08 3.99 0 1.52-.36 2.85-1.08 3.99-.72 1.12-1.76 1.98-3.12 2.58-1.34.6-2.92.9-4.74.9h-4.74V29h-3.9V8h8.64zm-.18 11.64c1.7 0 2.99-.36 3.87-1.08.88-.72 1.32-1.75 1.32-3.09 0-1.34-.44-2.37-1.32-3.09-.88-.72-2.17-1.08-3.87-1.08h-4.56v8.34h4.56zm19.796 9.57c-1.62 0-3.08-.35-4.38-1.05-1.3-.7-2.32-1.67-3.06-2.91-.72-1.26-1.08-2.68-1.08-4.26 0-1.58.36-2.99 1.08-4.23a7.793 7.793 0 013.06-2.91c1.3-.7 2.76-1.05 4.38-1.05 1.64 0 3.11.35 4.41 1.05 1.3.7 2.31 1.67 3.03 2.91.74 1.24 1.11 2.65 1.11 4.23 0 1.58-.37 3-1.11 4.26-.72 1.24-1.73 2.21-3.03 2.91-1.3.7-2.77 1.05-4.41 1.05zm0-3.21c1.38 0 2.52-.46 3.42-1.38.9-.92 1.35-2.13 1.35-3.63s-.45-2.71-1.35-3.63c-.9-.92-2.04-1.38-3.42-1.38s-2.52.46-3.42 1.38c-.88.92-1.32 2.13-1.32 3.63s.44 2.71 1.32 3.63c.9.92 2.04 1.38 3.42 1.38zm21.766 2.13c-.44.36-.98.63-1.62.81-.62.18-1.28.27-1.98.27-1.76 0-3.12-.46-4.08-1.38-.96-.92-1.44-2.26-1.44-4.02V16.1h-2.64v-3h2.64V9.44h3.75v3.66h4.29v3h-4.29v7.62c0 .78.19 1.38.57 1.8.38.4.93.6 1.65.6.84 0 1.54-.22 2.1-.66l1.05 2.67zm9.758 1.08c-1.62 0-3.08-.35-4.38-1.05-1.3-.7-2.32-1.67-3.06-2.91-.72-1.26-1.08-2.68-1.08-4.26 0-1.58.36-2.99 1.08-4.23a7.793 7.793 0 013.06-2.91c1.3-.7 2.76-1.05 4.38-1.05 1.64 0 3.11.35 4.41 1.05 1.3.7 2.31 1.67 3.03 2.91.74 1.24 1.11 2.65 1.11 4.23 0 1.58-.37 3-1.11 4.26-.72 1.24-1.73 2.21-3.03 2.91-1.3.7-2.77 1.05-4.41 1.05zm0-3.21c1.38 0 2.52-.46 3.42-1.38.9-.92 1.35-2.13 1.35-3.63s-.45-2.71-1.35-3.63c-.9-.92-2.04-1.38-3.42-1.38s-2.52.46-3.42 1.38c-.88.92-1.32 2.13-1.32 3.63s.44 2.71 1.32 3.63c.9.92 2.04 1.38 3.42 1.38zm12.136-19.26h3.75V29h-3.75V6.74zm15.212 15.39l-2.79 2.64V29h-3.75V6.74h3.75v13.44l7.77-7.2h4.5l-6.691 6.72 7.321 9.3h-4.56l-5.55-6.87zm12.385-9.15h3.75V29h-3.75V12.98zm1.89-2.64c-.68 0-1.25-.21-1.71-.63-.46-.44-.69-.98-.69-1.62 0-.64.23-1.17.69-1.59.46-.44 1.03-.66 1.71-.66.68 0 1.25.21 1.71.63.46.4.69.91.69 1.53 0 .66-.23 1.22-.69 1.68-.44.44-1.01.66-1.71.66z" fill="#000"/><path d="M53.82 8h3.9v17.7H68.7V29H53.82V8zm17.6 4.98h3.75V29h-3.75V12.98zm1.89-2.64c-.68 0-1.25-.21-1.71-.63-.46-.44-.69-.98-.69-1.62 0-.64.23-1.17.69-1.59.46-.44 1.03-.66 1.71-.66.68 0 1.25.21 1.71.63.46.4.69.91.69 1.53 0 .66-.23 1.22-.69 1.68-.44.44-1.01.66-1.71.66zm13.321 11.79l-2.79 2.64V29h-3.75V6.74h3.75v13.44l7.77-7.2h4.5l-6.69 6.72 7.32 9.3h-4.56l-5.55-6.87zm26.919-1.05c0 .26-.02.63-.06 1.11h-12.57c.22 1.18.79 2.12 1.71 2.82.94.68 2.1 1.02 3.48 1.02 1.76 0 3.21-.58 4.35-1.74l2.01 2.31c-.72.86-1.63 1.51-2.73 1.95-1.1.44-2.34.66-3.72.66-1.76 0-3.31-.35-4.65-1.05-1.34-.7-2.38-1.67-3.12-2.91-.72-1.26-1.08-2.68-1.08-4.26 0-1.56.35-2.96 1.05-4.2a7.628 7.628 0 012.97-2.94c1.26-.7 2.68-1.05 4.26-1.05 1.56 0 2.95.35 4.17 1.05 1.24.68 2.2 1.65 2.88 2.91.7 1.24 1.05 2.68 1.05 4.32zm-8.1-5.28c-1.2 0-2.22.36-3.06 1.08-.82.7-1.32 1.64-1.5 2.82h9.09c-.16-1.16-.65-2.1-1.47-2.82-.82-.72-1.84-1.08-3.06-1.08z" fill="#E52976"/><path fill-rule="evenodd" clip-rule="evenodd" d="M19 38c10.493 0 19-8.507 19-19S29.493 0 19 0 0 8.507 0 19s8.507 19 19 19zM16.72 7h-3.9v21H27.7v-3.3H16.72V7z" fill="#E52976"/></svg>