<svg width="32" height="32" fill="none" xmlns="http://www.w3.org/2000/svg"><g id="photo"><g id="Group"><g id="Icon" fill="#000"><path id="Vector" d="M26.79 2.991v5.954a1.117 1.117 0 002.233 0V2.99a1.117 1.117 0 00-2.232 0z"/><path id="Vector_2" d="M24.93 7.084h5.954a1.117 1.117 0 000-2.232H24.93a1.117 1.117 0 000 2.232z"/><path id="Vector_3" d="M18.977 2.62H11.71c-.986 0-1.888.557-2.329 1.438l-1.41 2.82a.375.375 0 01-.333.206H4.093A4.093 4.093 0 000 11.177v14.884a4.1 4.1 0 001.198 2.895 4.1 4.1 0 002.895 1.198h23.814a4.1 4.1 0 002.895-1.198A4.1 4.1 0 0032 26.06V13.41a1.117 1.117 0 00-2.233 0v12.65a1.863 1.863 0 01-1.86 1.86H4.093a1.864 1.864 0 01-1.86-1.86V11.177a1.86 1.86 0 011.86-1.86h3.545c.987 0 1.89-.558 2.33-1.44l1.41-2.82a.375.375 0 01.332-.205h7.267a1.117 1.117 0 000-2.233z"/><path id="Vector_4" d="M16 10.805a7.072 7.072 0 00-7.07 7.07 7.072 7.072 0 007.07 7.07 7.072 7.072 0 007.07-7.07 7.072 7.072 0 00-7.07-7.07zm0 2.233a4.839 4.839 0 014.837 4.837A4.84 4.84 0 0116 22.712a4.839 4.839 0 01-4.837-4.837A4.839 4.839 0 0116 13.038z"/></g></g></g></svg>