<svg width="64" height="64" fill="none" xmlns="http://www.w3.org/2000/svg"><g id="Frame"><g id="Group"><g id="Group_2" fill="#000"><path id="Vector" d="M62 5h-3.861L44.274 1.039a1.002 1.002 0 00-1.274.96v3H21V2a1 1 0 00-1.274-.96L5.861 4.999H2a1 1 0 00-1 1v52a1 1 0 001 1h1v3a1 1 0 001 1h5a1 1 0 001-1v-1.816l9.726 2.779a1.005 1.005 0 00.877-.163c.25-.19.397-.486.397-.8v-3h22v3c0 .314.147.61.397.8a1.005 1.005 0 00.877.163L54 60.182V62a1 1 0 001 1h5a1 1 0 001-1v-3h1a1 1 0 001-1V6a1 1 0 00-1-1zM3 7h2v50H3V7zm5 54H5v-2h.859L8 59.612V61zm11-.326L7 57.246V6.754l12-3.43v57.35zM43 7v2H21V7h22zM21 53v-6h2v6h-2zm4-6h2v6h-2v-6zm4 0h2v6h-2v-6zm3-2H21v-2h22v10H33v-7a1 1 0 00-1-1zm-11-4v-2h22v2H21zm16-4v-6h2v6h-2zm-2 0h-2v-6h2v6zm6 0v-6h2v6h-2zm-9-8a1 1 0 00-1 1v7H21V27h22v2H32zm-11-4v-2h22v2H21zm10-4H21v-4h10v4zm2 0v-6h4v3a1 1 0 001 1h5v2H33zm6-4v-2h4v2h-4zm-7-4a1 1 0 00-1 1v1H21v-4h22v2H32zM21 57v-2h22v2H21zM45 3.326l12 3.429v50.492l-12 3.428V3.325zM59 61h-3v-1.388L58.141 59H59v2zm2-4h-2V7h2v50z"/><path id="Vector_2" d="M52 27h-4a1 1 0 00-1 1v8a1 1 0 001 1h4a1 1 0 001-1v-8a1 1 0 00-1-1zm-1 8h-2v-6h2v6z"/><path id="Vector_3" d="M12 37h4a1 1 0 001-1v-8a1 1 0 00-1-1h-4a1 1 0 00-1 1v8a1 1 0 001 1zm1-8h2v6h-2v-6z"/></g></g></g></svg>