<svg width="64" height="64" fill="none" xmlns="http://www.w3.org/2000/svg"><g id="Frame"><g id="Group"><g id="Group_2" fill="#000"><path id="Vector" d="M59.5 4h-55A3.504 3.504 0 001 7.5v49A3.504 3.504 0 004.5 60h55a3.504 3.504 0 003.5-3.5v-49A3.504 3.504 0 0059.5 4zM61 56.5a1.501 1.501 0 01-1.5 1.5h-55A1.501 1.501 0 013 56.5V18h58v38.5zM61 16H3V7.5A1.501 1.501 0 014.5 6h55A1.501 1.501 0 0161 7.5V16z"/><path id="Vector_2" d="M32 15a4 4 0 100-8 4 4 0 000 8zm0-6c.174 0 .348.024.516.07l-1.223 1.223a1 1 0 101.414 1.414l1.223-1.223A1.999 1.999 0 1132 9z"/><path id="Vector_3" d="M16 15a4 4 0 100-8 4 4 0 000 8zm-1-5.73V11a1 1 0 002 0V9.27a2 2 0 11-2 0z"/><path id="Vector_4" d="M48 15a4 4 0 100-8 4 4 0 000 8zm-1-5.73V11a1 1 0 002 0V9.27a2 2 0 11-2 0z"/><path id="Vector_5" d="M57 21H7a1 1 0 00-1 1v32a1 1 0 001 1h50a1 1 0 001-1V22a1 1 0 00-1-1zM21 53v-1h10v1H21zm-5-3v-1h32v1H16zm17 3v-1h10v1H33zm23 0H45v-1h4a1 1 0 001-1v-3a1 1 0 00-1-1H15a1 1 0 00-1 1v3a1 1 0 001 1h4v1H8V23h48v30z"/><path id="Vector_6" d="M11 27h8a1 1 0 000-2h-8a1 1 0 000 2z"/><path id="Vector_7" d="M22 27h1a1 1 0 000-2h-1a1 1 0 000 2z"/></g></g></g></svg>