<svg width="92" height="16" fill="none" xmlns="http://www.w3.org/2000/svg"><g clip-path="url(#clip0_1_1643)"><path d="M8 0a1 1 0 01.87.508l2.244 3.973 4.076.787a1 1 0 01.538 1.667L12.77 10.08l.747 4.766a1 1 0 01-1.422 1.055L8 13.923 3.905 15.9a1 1 0 01-1.422-1.055l.747-4.766L.272 6.935A1 1 0 01.81 5.268l4.076-.787L7.129.508A1 1 0 018 0z" fill="#FFB800"/></g><g clip-path="url(#clip1_1_1643)"><path d="M27 0a1 1 0 01.87.508l2.244 3.973 4.076.787a1 1 0 01.538 1.667L31.77 10.08l.747 4.766a1 1 0 01-1.423 1.055L27 13.923 22.905 15.9a1 1 0 01-1.422-1.055l.747-4.766-2.958-3.144a1 1 0 01.538-1.667l4.076-.787L26.129.508A1 1 0 0127 0z" fill="#FFB800"/></g><g clip-path="url(#clip2_1_1643)"><path d="M46 0a1 1 0 01.87.508l2.244 3.973 4.076.787a1 1 0 01.538 1.667L50.77 10.08l.747 4.766a1 1 0 01-1.423 1.055L46 13.923 41.906 15.9a1 1 0 01-1.423-1.055l.747-4.766-2.958-3.144a1 1 0 01.538-1.667l4.076-.787L45.129.508A1 1 0 0146 0z" fill="#FFB800"/></g><g clip-path="url(#clip3_1_1643)"><path d="M65 0a1 1 0 01.87.508l2.244 3.973 4.076.787a1 1 0 01.538 1.667L69.77 10.08l.747 4.766a1 1 0 01-1.422 1.055L65 13.923 60.906 15.9a1 1 0 01-1.423-1.055l.747-4.766-2.958-3.144a1 1 0 01.538-1.667l4.076-.787L64.129.508A1 1 0 0165 0z" fill="#FFB800"/></g><g clip-path="url(#clip4_1_1643)"><path d="M84 0a1 1 0 01.87.508l2.244 3.973 4.076.787a1 1 0 01.538 1.667L88.77 10.08l.747 4.766a1 1 0 01-1.422 1.055L84 13.923 79.906 15.9a1 1 0 01-1.423-1.055l.747-4.766-2.958-3.144a1 1 0 01.538-1.667l4.076-.787L83.129.508A1 1 0 0184 0z" fill="#FFB800"/></g><defs><clipPath id="clip0_1_1643"><path fill="#fff" d="M0 0h16v16H0z"/></clipPath><clipPath id="clip1_1_1643"><path fill="#fff" transform="translate(19)" d="M0 0h16v16H0z"/></clipPath><clipPath id="clip2_1_1643"><path fill="#fff" transform="translate(38)" d="M0 0h16v16H0z"/></clipPath><clipPath id="clip3_1_1643"><path fill="#fff" transform="translate(57)" d="M0 0h16v16H0z"/></clipPath><clipPath id="clip4_1_1643"><path fill="#fff" transform="translate(76)" d="M0 0h16v16H0z"/></clipPath></defs></svg>