<svg width="32" height="32" fill="none" xmlns="http://www.w3.org/2000/svg"><g id="telegram" clip-path="url(#clip0_1_318)"><g id="Group"><path id="Subtract" fill-rule="evenodd" clip-rule="evenodd" d="M16.667 32h-1.334C8.107 32 4.48 32 2.24 29.76S0 23.893 0 16.693v-1.36C0 8.107 0 4.48 2.227 2.24 4.467 0 8.08 0 15.333 0h1.334c7.24 0 10.866 0 13.106 2.24C32 4.48 32 8.107 32 15.307v1.36c0 7.226 0 10.853-2.227 13.093C27.533 32 23.92 32 16.667 32zm.068-21.638c-1.685.701-5.054 2.152-10.108 4.354-.82.326-1.251.645-1.289.957-.067.527.593.735 1.49 1.018l.381.121c.886.288 2.078.624 2.695.638.563.012 1.19-.22 1.88-.695 4.723-3.187 7.158-4.797 7.312-4.832.109-.024.258-.055.358.035.103.09.092.26.081.306-.064.279-2.647 2.68-3.991 3.93a49.71 49.71 0 00-.784.735c-.136.142-.274.275-.408.404-.822.792-1.438 1.386.034 2.357.715.47 1.285.858 1.854 1.246.613.418 1.224.834 2.014 1.352.203.133.397.271.586.406.718.512 1.363.972 2.16.898.463-.042.943-.478 1.184-1.777.574-3.07 1.703-9.72 1.963-12.462a3.07 3.07 0 00-.027-.682.747.747 0 00-.246-.47c-.209-.168-.528-.203-.672-.2-.653.01-1.652.359-6.467 2.36z" fill="#fff"/></g></g><defs><clipPath id="clip0_1_318"><path fill="#fff" d="M0 0h32v32H0z"/></clipPath></defs></svg>