<svg width="60" height="60" fill="none" xmlns="http://www.w3.org/2000/svg"><g id="telegram" clip-path="url(#clip0_1_1544)"><g id="Group"><path id="Vector" d="M28.75 60h2.5c13.6 0 20.375 0 24.575-4.2C60 51.6 60 44.8 60 31.25V28.7c0-13.5 0-20.3-4.175-24.5-4.2-4.2-11-4.2-24.575-4.2h-2.5C15.15 0 8.375 0 4.175 4.2 0 8.4 0 15.2 0 28.75v2.55c0 13.5 0 20.3 4.2 24.5C8.4 60 15.2 60 28.75 60z" fill="#28A7E8"/><path id="Vector_2" d="M12.426 27.592c9.476-4.128 15.793-6.849 18.952-8.164C40.406 15.674 42.28 15.022 43.504 15c.27-.004.868.062 1.26.379.324.266.416.627.461.88.041.253.097.829.051 1.279-.487 5.139-2.605 17.61-3.681 23.366-.452 2.435-1.351 3.252-2.22 3.332-1.889.173-3.32-1.248-5.149-2.446-2.859-1.875-4.473-3.042-7.251-4.872-3.21-2.114-1.128-3.276.7-5.176.478-.497 8.796-8.06 8.953-8.747.02-.086.04-.405-.152-.574-.188-.17-.467-.111-.67-.066-.29.065-4.855 3.086-13.711 9.061-1.295.891-2.468 1.325-3.525 1.302-1.157-.025-3.392-.656-5.052-1.195-2.032-.662-3.651-1.012-3.51-2.135.072-.585.88-1.184 2.418-1.796z" fill="#fff"/></g></g><defs><clipPath id="clip0_1_1544"><path fill="#fff" d="M0 0h60v60H0z"/></clipPath></defs></svg>