<svg width="24" height="24" fill="none" xmlns="http://www.w3.org/2000/svg"><g id="telegram" clip-path="url(#clip0_1_29)"><g id="Group"><path id="Vector" d="M11.5 24h1c5.44 0 8.15 0 9.83-1.68C24 20.64 24 17.92 24 12.5v-1.02c0-5.4 0-8.12-1.67-9.8C20.65 0 17.93 0 12.5 0h-1C6.06 0 3.35 0 1.67 1.68 0 3.36 0 6.08 0 11.5v1.02c0 5.4 0 8.12 1.68 9.8C3.36 24 6.08 24 11.5 24z" fill="#878B90"/><path id="Vector_2" d="M4.97 11.037c3.79-1.651 6.318-2.74 7.581-3.266 3.612-1.501 4.361-1.762 4.85-1.77.108-.003.348.024.504.15a.56.56 0 01.185.352c.017.102.039.332.02.512-.194 2.056-1.041 7.044-1.472 9.346-.18.975-.54 1.301-.888 1.333-.755.07-1.328-.499-2.06-.978-1.143-.75-1.789-1.217-2.9-1.949-1.284-.845-.451-1.31.28-2.07.191-.199 3.518-3.224 3.581-3.499.008-.034.017-.162-.06-.23-.076-.067-.188-.044-.269-.026-.116.026-1.942 1.234-5.484 3.624-.518.357-.987.53-1.41.521-.463-.01-1.357-.262-2.02-.478-.813-.264-1.461-.405-1.405-.854.029-.234.352-.474.967-.718z" fill="#fff"/></g></g><defs><clipPath id="clip0_1_29"><path fill="#fff" d="M0 0h24v24H0z"/></clipPath></defs></svg>