<svg width="24" height="24" fill="none" xmlns="http://www.w3.org/2000/svg"><path d="M4 21c0-1.798 2.27-5.212 6.5-5.884M12 11a4 4 0 100-8 4 4 0 000 8zm10.83 3.943a1.274 1.274 0 00-.888-.917c-.789-.192-3.942-.192-3.942-.192s-3.153 0-3.942.21a1.275 1.275 0 00-.889.917 13.29 13.29 0 00-.21 2.425c-.006.819.065 1.636.21 2.442a1.273 1.273 0 00.89.88c.788.211 3.94.211 3.94.211s3.154 0 3.943-.21a1.273 1.273 0 00.889-.917 13.3 13.3 0 00.21-2.406c.006-.82-.065-1.637-.21-2.443v0z" stroke="#000" stroke-width="1.5" stroke-linecap="round" stroke-linejoin="round"/><path d="M16.969 18.884l2.635-1.498-2.635-1.5v2.998z" fill="#000"/></svg>