<svg width="64" height="64" fill="none" xmlns="http://www.w3.org/2000/svg"><g id="Frame"><g id="Group"><g id="Group_2" fill="#000"><path id="Vector" d="M62.581 40.188l-.005-.006L46 28.482V25a1 1 0 00-1-1h-4V7a1 1 0 00-1-1H24a1 1 0 00-1 1v17h-4a1 1 0 00-1 1v3.481L1.424 40.182l-.005.005A.996.996 0 001 41v4a1 1 0 001 1h60a1 1 0 001-1v-4a.996.996 0 00-.419-.813zM25 8h14v16H25V8zm-5 18h24v2H20v-2zm-.683 4h25.365L58.85 40H5.15l14.166-10zM61 44H3v-2h58v2z"/><path id="Vector_2" d="M32.183 50.615c.11-.338.291-.649.53-.913a1 1 0 00-1.42-1.409c-1.088 1.088-1.986 3.428 0 5.414.541.541.708 1.075.524 1.678-.11.336-.288.645-.524.908a1 1 0 101.414 1.414c1.088-1.087 1.986-3.428 0-5.414-.541-.541-.707-1.074-.524-1.678z"/><path id="Vector_3" d="M20.183 50.615c.11-.338.291-.649.53-.913a1 1 0 00-1.42-1.409c-1.088 1.088-1.986 3.428 0 5.414.541.541.707 1.075.524 1.678-.11.336-.288.645-.524.908a1 1 0 101.414 1.414c1.088-1.087 1.986-3.428 0-5.414-.541-.541-.707-1.074-.524-1.678z"/><path id="Vector_4" d="M44.183 50.615c.11-.338.29-.649.53-.913a1 1 0 00-1.42-1.409c-1.088 1.088-1.986 3.428 0 5.414.541.541.708 1.075.524 1.678-.11.336-.288.645-.524.908a1 1 0 101.414 1.414c1.088-1.087 1.986-3.428 0-5.414-.541-.541-.707-1.074-.524-1.678z"/><path id="Vector_5" d="M19 37h-7a1 1 0 000 2h7a1 1 0 000-2z"/><path id="Vector_6" d="M23 37h-1a1 1 0 000 2h1a1 1 0 000-2z"/></g></g></g></svg>