<svg width="32" height="32" fill="none" xmlns="http://www.w3.org/2000/svg"><g id="vk-new" clip-path="url(#clip0_1_313)"><g id="Group"><path id="Subtract" fill-rule="evenodd" clip-rule="evenodd" d="M16.667 32h-1.334C8.107 32 4.48 32 2.24 29.76S0 23.893 0 16.693v-1.36C0 8.107 0 4.48 2.227 2.24 4.467 0 8.08 0 15.333 0h1.334c7.24 0 10.866 0 13.106 2.24C32 4.48 32 8.107 32 15.307v1.36c0 7.226 0 10.853-2.227 13.093C27.533 32 23.92 32 16.667 32zM5.4 9.733c.173 8.32 4.333 13.32 11.627 13.32h.413v-4.76a6.587 6.587 0 015.52 4.76h3.787a10.535 10.535 0 00-5.48-6.68 10.16 10.16 0 004.68-6.64h-3.44c-.747 2.64-2.96 5.04-5.067 5.267V9.733H14v9.227c-2.133-.533-4.827-3.12-4.947-9.227H5.4z" fill="#fff"/></g></g><defs><clipPath id="clip0_1_313"><path fill="#fff" d="M0 0h32v32H0z"/></clipPath></defs></svg>