<svg width="60" height="60" fill="none" xmlns="http://www.w3.org/2000/svg"><g id="youtube"><g id="Group 3"><path id="Vector" d="M58.744 15.6a7.582 7.582 0 00-5.29-5.455C48.762 9 30 9 30 9S11.237 9 6.547 10.255a7.582 7.582 0 00-5.291 5.454A79.088 79.088 0 00.002 30.135a79.062 79.062 0 001.254 14.536 7.581 7.581 0 005.29 5.236C11.238 51.161 30 51.161 30 51.161s18.763 0 23.453-1.254a7.581 7.581 0 005.291-5.454 79.086 79.086 0 001.254-14.318A79.09 79.09 0 0058.744 15.6z" fill="red"/><path id="Vector_2" d="M23.864 39.053l15.681-8.918-15.681-8.918v17.836z" fill="#fff"/></g></g></svg>